# xmcd
#
# Track frame offsets: 
#        150
#        24670
#        40252
#        50495
#        74667
#        97920
#        132042
#
# Disc length: 2171 seconds
#
# Revision: 2
# Processed by: cddbd v1.5.1PL0 Copyright (c) Steve Scherf et al.
# Submitted via: ExactAudioCopy v0.90b4
#
DISCID=5b087907
DTITLE=Peps Blodsband - Fram Med Pengarna!
DYEAR=1988
DGENRE=Blues
TTITLE0=Lived Po Lanned (Give Me The Country)
TTITLE1=Hon Har Nånting (She's Into Something)
TTITLE2=Bom Bom - Sen blir Det Svart (Boom Boom - Out Go The Lights)
TTITLE3=Ronny Du E Rå (Johnny Too Bad)
TTITLE4=Fram Med Pengarna
TTITLE5=Samma Sång
TTITLE6=Sent Pa Jorden
EXTD=
EXTT0=
EXTT1=
EXTT2=
EXTT3=
EXTT4=
EXTT5=
EXTT6=
PLAYORDER=
